<svg width="1921" height="1159" viewBox="0 0 1921 1159" fill="none" xmlns="http://www.w3.org/2000/svg">
<g clip-path="url(#clip0_164_1945)">
<rect width="1920" height="1157.77" transform="translate(0.796875 0.925781)" fill="#121212"/>
<g style="mix-blend-mode:soft-light" opacity="0.7">
<path d="M129.638 184.33H90.0586V223.909M129.638 184.33V223.909M129.638 184.33H169.216M129.638 223.909H90.0586M129.638 223.909V263.488M129.638 223.909H169.216M90.0586 223.909V263.488M129.638 263.488H90.0586M129.638 263.488V303.067M129.638 263.488H169.216M90.0586 263.488V303.067M129.638 303.067H90.0586M129.638 303.067V342.646M129.638 303.067H169.216M90.0586 303.067V342.646M129.638 342.646H90.0586M129.638 342.646V382.225M129.638 342.646H169.216M90.0586 342.646V382.225M129.638 382.225H90.0586M129.638 382.225V421.804M129.638 382.225H169.216M90.0586 382.225V421.804M129.638 421.804H90.0586M129.638 421.804V461.383M129.638 421.804H169.216M90.0586 421.804V461.383M129.638 461.383H90.0586M129.638 461.383V500.962M129.638 461.383H169.216M90.0586 461.383V500.962M129.638 500.962H90.0586M129.638 500.962V540.541M129.638 500.962H169.216M90.0586 500.962V540.541M129.638 540.541H90.0586M129.638 540.541V580.12M129.638 540.541H169.216M90.0586 540.541V580.12M129.638 580.12H90.0586M129.638 580.12V619.698M129.638 580.12H169.216M90.0586 580.12V619.698M129.638 619.698H90.0586M129.638 619.698V659.277M129.638 619.698H169.216M90.0586 619.698V659.277M129.638 659.277H90.0586M129.638 659.277V698.856M129.638 659.277H169.216M90.0586 659.277V698.856M129.638 698.856H90.0586M129.638 698.856V738.435M129.638 698.856H169.216M90.0586 698.856V738.435M129.638 738.435H90.0586M129.638 738.435V778.014M129.638 738.435H169.216M90.0586 738.435V778.014M129.638 778.014H90.0586M129.638 778.014V817.593M129.638 778.014H169.216M90.0586 778.014V817.593M129.638 817.593H90.0586M129.638 817.593V857.172M129.638 817.593H169.216M90.0586 817.593V857.172M129.638 857.172H90.0586M129.638 857.172V896.751M129.638 857.172H169.216M90.0586 857.172V896.751M129.638 896.751H90.0586M129.638 896.751V936.33M129.638 896.751H169.216M90.0586 896.751V936.33M129.638 936.33H90.0586M129.638 936.33V975.909M129.638 936.33H169.216M90.0586 936.33V975.909H129.638M129.638 975.909H169.216M169.216 184.33V223.909M169.216 184.33H208.795M169.216 223.909V263.488M169.216 223.909H208.795M169.216 263.488V303.067M169.216 263.488H208.795M169.216 303.067V342.646M169.216 303.067H208.795M169.216 342.646V382.225M169.216 342.646H208.795M169.216 382.225V421.804M169.216 382.225H208.795M169.216 421.804V461.383M169.216 421.804H208.795M169.216 461.383V500.962M169.216 461.383H208.795M169.216 500.962V540.541M169.216 500.962H208.795M169.216 540.541V580.12M169.216 540.541H208.795M169.216 580.12V619.698M169.216 580.12H208.795M169.216 619.698V659.277M169.216 619.698H208.795M169.216 659.277V698.856M169.216 659.277H208.795M169.216 698.856V738.435M169.216 698.856H208.795M169.216 738.435V778.014M169.216 738.435H208.795M169.216 778.014V817.593M169.216 778.014H208.795M169.216 817.593V857.172M169.216 817.593H208.795M169.216 857.172V896.751M169.216 857.172H208.795M169.216 896.751V936.33M169.216 896.751H208.795M169.216 936.33V975.909M169.216 936.33H208.795M169.216 975.909H208.795M208.795 184.33V223.909M208.795 184.33H248.374M208.795 223.909V263.488M208.795 223.909H248.374M208.795 263.488V303.067M208.795 263.488H248.374M208.795 303.067V342.646M208.795 303.067H248.374M208.795 342.646V382.225M208.795 342.646H248.374M208.795 382.225V421.804M208.795 382.225H248.374M208.795 421.804V461.383M208.795 421.804H248.374M208.795 461.383V500.962M208.795 461.383H248.374M208.795 500.962V540.541M208.795 500.962H248.374M208.795 540.541V580.12M208.795 540.541H248.374M208.795 580.12V619.698M208.795 580.12H248.374M208.795 619.698V659.277M208.795 619.698H248.374M208.795 659.277V698.856M208.795 659.277H248.374M208.795 698.856V738.435M208.795 698.856H248.374M208.795 738.435V778.014M208.795 738.435H248.374M208.795 778.014V817.593M208.795 778.014H248.374M208.795 817.593V857.172M208.795 817.593H248.374M208.795 857.172V896.751M208.795 857.172H248.374M208.795 896.751V936.33M208.795 896.751H248.374M208.795 936.33V975.909M208.795 936.33H248.374M208.795 975.909H248.374M248.374 184.33V223.909M248.374 184.33H287.953M248.374 223.909V263.488M248.374 223.909H287.953M248.374 263.488V303.067M248.374 263.488H287.953M248.374 303.067V342.646M248.374 303.067H287.953M248.374 342.646V382.225M248.374 342.646H287.953M248.374 382.225V421.804M248.374 382.225H287.953M248.374 421.804V461.383M248.374 421.804H287.953M248.374 461.383V500.962M248.374 461.383H287.953M248.374 500.962V540.541M248.374 500.962H287.953M248.374 540.541V580.12M248.374 540.541H287.953M248.374 580.12V619.698M248.374 580.12H287.953M248.374 619.698V659.277M248.374 619.698H287.953M248.374 659.277V698.856M248.374 659.277H287.953M248.374 698.856V738.435M248.374 698.856H287.953M248.374 738.435V778.014M248.374 738.435H287.953M248.374 778.014V817.593M248.374 778.014H287.953M248.374 817.593V857.172M248.374 817.593H287.953M248.374 857.172V896.751M248.374 857.172H287.953M248.374 896.751V936.33M248.374 896.751H287.953M248.374 936.33V975.909M248.374 936.33H287.953M248.374 975.909H287.953M287.953 184.33V223.909M287.953 184.33H327.532M287.953 223.909V263.488M287.953 223.909H327.532M287.953 263.488V303.067M287.953 263.488H327.532M287.953 303.067V342.646M287.953 303.067H327.532M287.953 342.646V382.225M287.953 342.646H327.532M287.953 382.225V421.804M287.953 382.225H327.532M287.953 421.804V461.383M287.953 421.804H327.532M287.953 461.383V500.962M287.953 461.383H327.532M287.953 500.962V540.541M287.953 500.962H327.532M287.953 540.541V580.12M287.953 540.541H327.532M287.953 580.12V619.698M287.953 580.12H327.532M287.953 619.698V659.277M287.953 619.698H327.532M287.953 659.277V698.856M287.953 659.277H327.532M287.953 698.856V738.435M287.953 698.856H327.532M287.953 738.435V778.014M287.953 738.435H327.532M287.953 778.014V817.593M287.953 778.014H327.532M287.953 817.593V857.172M287.953 817.593H327.532M287.953 857.172V896.751M287.953 857.172H327.532M287.953 896.751V936.33M287.953 896.751H327.532M287.953 936.33V975.909M287.953 936.33H327.532M287.953 975.909H327.532M327.532 184.33V223.909M327.532 184.33H367.111M327.532 223.909V263.488M327.532 223.909H367.111M327.532 263.488V303.067M327.532 263.488H367.111M327.532 303.067V342.646M327.532 303.067H367.111M327.532 342.646V382.225M327.532 342.646H367.111M327.532 382.225V421.804M327.532 382.225H367.111M327.532 421.804V461.383M327.532 421.804H367.111M327.532 461.383V500.962M327.532 461.383H367.111M327.532 500.962V540.541M327.532 500.962H367.111M327.532 540.541V580.12M327.532 540.541H367.111M327.532 580.12V619.698M327.532 580.12H367.111M327.532 619.698V659.277M327.532 619.698H367.111M327.532 659.277V698.856M327.532 659.277H367.111M327.532 698.856V738.435M327.532 698.856H367.111M327.532 738.435V778.014M327.532 738.435H367.111M327.532 778.014V817.593M327.532 778.014H367.111M327.532 817.593V857.172M327.532 817.593H367.111M327.532 857.172V896.751M327.532 857.172H367.111M327.532 896.751V936.33M327.532 896.751H367.111M327.532 936.33V975.909M327.532 936.33H367.111M327.532 975.909H367.111M367.111 184.33V223.909M367.111 184.33H406.69M367.111 223.909V263.488M367.111 223.909H406.69M367.111 263.488V303.067M367.111 263.488H406.69M367.111 303.067V342.646M367.111 303.067H406.69M367.111 342.646V382.225M367.111 342.646H406.69M367.111 382.225V421.804M367.111 382.225H406.69M367.111 421.804V461.383M367.111 421.804H406.69M367.111 461.383V500.962M367.111 461.383H406.69M367.111 500.962V540.541M367.111 500.962H406.69M367.111 540.541V580.12M367.111 540.541H406.69M367.111 580.12V619.698M367.111 580.12H406.69M367.111 619.698V659.277M367.111 619.698H406.69M367.111 659.277V698.856M367.111 659.277H406.69M367.111 698.856V738.435M367.111 698.856H406.69M367.111 738.435V778.014M367.111 738.435H406.69M367.111 778.014V817.593M367.111 778.014H406.69M367.111 817.593V857.172M367.111 817.593H406.69M367.111 857.172V896.751M367.111 857.172H406.69M367.111 896.751V936.33M367.111 896.751H406.69M367.111 936.33V975.909M367.111 936.33H406.69M367.111 975.909H406.69M406.69 184.33V223.909M406.69 184.33H446.269M406.69 223.909V263.488M406.69 223.909H446.269M406.69 263.488V303.067M406.69 263.488H446.269M406.69 303.067V342.646M406.69 303.067H446.269M406.69 342.646V382.225M406.69 342.646H446.269M406.69 382.225V421.804M406.69 382.225H446.269M406.69 421.804V461.383M406.69 421.804H446.269M406.69 461.383V500.962M406.69 461.383H446.269M406.69 500.962V540.541M406.69 500.962H446.269M406.69 540.541V580.12M406.69 540.541H446.269M406.69 580.12V619.698M406.69 580.12H446.269M406.69 619.698V659.277M406.69 619.698H446.269M406.69 659.277V698.856M406.69 659.277H446.269M406.69 698.856V738.435M406.69 698.856H446.269M406.69 738.435V778.014M406.69 738.435H446.269M406.69 778.014V817.593M406.69 778.014H446.269M406.69 817.593V857.172M406.69 817.593H446.269M406.69 857.172V896.751M406.69 857.172H446.269M406.69 896.751V936.33M406.69 896.751H446.269M406.69 936.33V975.909M406.69 936.33H446.269M406.69 975.909H446.269M446.269 184.33V223.909M446.269 184.33H485.848M446.269 223.909V263.488M446.269 223.909H485.848M446.269 263.488V303.067M446.269 263.488H485.848M446.269 303.067V342.646M446.269 303.067H485.848M446.269 342.646V382.225M446.269 342.646H485.848M446.269 382.225V421.804M446.269 382.225H485.848M446.269 421.804V461.383M446.269 421.804H485.848M446.269 461.383V500.962M446.269 461.383H485.848M446.269 500.962V540.541M446.269 500.962H485.848M446.269 540.541V580.12M446.269 540.541H485.848M446.269 580.12V619.698M446.269 580.12H485.848M446.269 619.698V659.277M446.269 619.698H485.848M446.269 659.277V698.856M446.269 659.277H485.848M446.269 698.856V738.435M446.269 698.856H485.848M446.269 738.435V778.014M446.269 738.435H485.848M446.269 778.014V817.593M446.269 778.014H485.848M446.269 817.593V857.172M446.269 817.593H485.848M446.269 857.172V896.751M446.269 857.172H485.848M446.269 896.751V936.33M446.269 896.751H485.848M446.269 936.33V975.909M446.269 936.33H485.848M446.269 975.909H485.848M485.848 184.33V223.909M485.848 184.33H525.427M485.848 223.909V263.488M485.848 223.909H525.427M485.848 263.488V303.067M485.848 263.488H525.427M485.848 303.067V342.646M485.848 303.067H525.427M485.848 342.646V382.225M485.848 342.646H525.427M485.848 382.225V421.804M485.848 382.225H525.427M485.848 421.804V461.383M485.848 421.804H525.427M485.848 461.383V500.962M485.848 461.383H525.427M485.848 500.962V540.541M485.848 500.962H525.427M485.848 540.541V580.12M485.848 540.541H525.427M485.848 580.12V619.698M485.848 580.12H525.427M485.848 619.698V659.277M485.848 619.698H525.427M485.848 659.277V698.856M485.848 659.277H525.427M485.848 698.856V738.435M485.848 698.856H525.427M485.848 738.435V778.014M485.848 738.435H525.427M485.848 778.014V817.593M485.848 778.014H525.427M485.848 817.593V857.172M485.848 817.593H525.427M485.848 857.172V896.751M485.848 857.172H525.427M485.848 896.751V936.33M485.848 896.751H525.427M485.848 936.33V975.909M485.848 936.33H525.427M485.848 975.909H525.427M525.427 184.33V223.909M525.427 184.33H565.006M525.427 223.909V263.488M525.427 223.909H565.006M525.427 263.488V303.067M525.427 263.488H565.006M525.427 303.067V342.646M525.427 303.067H565.006M525.427 342.646V382.225M525.427 342.646H565.006M525.427 382.225V421.804M525.427 382.225H565.006M525.427 421.804V461.383M525.427 421.804H565.006M525.427 461.383V500.962M525.427 461.383H565.006M525.427 500.962V540.541M525.427 500.962H565.006M525.427 540.541V580.12M525.427 540.541H565.006M525.427 580.12V619.698M525.427 580.12H565.006M525.427 619.698V659.277M525.427 619.698H565.006M525.427 659.277V698.856M525.427 659.277H565.006M525.427 698.856V738.435M525.427 698.856H565.006M525.427 738.435V778.014M525.427 738.435H565.006M525.427 778.014V817.593M525.427 778.014H565.006M525.427 817.593V857.172M525.427 817.593H565.006M525.427 857.172V896.751M525.427 857.172H565.006M525.427 896.751V936.33M525.427 896.751H565.006M525.427 936.33V975.909M525.427 936.33H565.006M525.427 975.909H565.006M565.006 184.33V223.909M565.006 184.33H604.585M565.006 223.909V263.488M565.006 223.909H604.585M565.006 263.488V303.067M565.006 263.488H604.585M565.006 303.067V342.646M565.006 303.067H604.585M565.006 342.646V382.225M565.006 342.646H604.585M565.006 382.225V421.804M565.006 382.225H604.585M565.006 421.804V461.383M565.006 421.804H604.585M565.006 461.383V500.962M565.006 461.383H604.585M565.006 500.962V540.541M565.006 500.962H604.585M565.006 540.541V580.12M565.006 540.541H604.585M565.006 580.12V619.698M565.006 580.12H604.585M565.006 619.698V659.277M565.006 619.698H604.585M565.006 659.277V698.856M565.006 659.277H604.585M565.006 698.856V738.435M565.006 698.856H604.585M565.006 738.435V778.014M565.006 738.435H604.585M565.006 778.014V817.593M565.006 778.014H604.585M565.006 817.593V857.172M565.006 817.593H604.585M565.006 857.172V896.751M565.006 857.172H604.585M565.006 896.751V936.33M565.006 896.751H604.585M565.006 936.33V975.909M565.006 936.33H604.585M565.006 975.909H604.585M604.585 184.33V223.909M604.585 184.33H644.164M604.585 223.909V263.488M604.585 223.909H644.164M604.585 263.488V303.067M604.585 263.488H644.164M604.585 303.067V342.646M604.585 303.067H644.164M604.585 342.646V382.225M604.585 342.646H644.164M604.585 382.225V421.804M604.585 382.225H644.164M604.585 421.804V461.383M604.585 421.804H644.164M604.585 461.383V500.962M604.585 461.383H644.164M604.585 500.962V540.541M604.585 500.962H644.164M604.585 540.541V580.12M604.585 540.541H644.164M604.585 580.12V619.698M604.585 580.12H644.164M604.585 619.698V659.277M604.585 619.698H644.164M604.585 659.277V698.856M604.585 659.277H644.164M604.585 698.856V738.435M604.585 698.856H644.164M604.585 738.435V778.014M604.585 738.435H644.164M604.585 778.014V817.593M604.585 778.014H644.164M604.585 817.593V857.172M604.585 817.593H644.164M604.585 857.172V896.751M604.585 857.172H644.164M604.585 896.751V936.33M604.585 896.751H644.164M604.585 936.33V975.909M604.585 936.33H644.164M604.585 975.909H644.164M644.164 184.33V223.909M644.164 184.33H683.743M644.164 223.909V263.488M644.164 223.909H683.743M644.164 263.488V303.067M644.164 263.488H683.743M644.164 303.067V342.646M644.164 303.067H683.743M644.164 342.646V382.225M644.164 342.646H683.743M644.164 382.225V421.804M644.164 382.225H683.743M644.164 421.804V461.383M644.164 421.804H683.743M644.164 461.383V500.962M644.164 461.383H683.743M644.164 500.962V540.541M644.164 500.962H683.743M644.164 540.541V580.12M644.164 540.541H683.743M644.164 580.12V619.698M644.164 580.12H683.743M644.164 619.698V659.277M644.164 619.698H683.743M644.164 659.277V698.856M644.164 659.277H683.743M644.164 698.856V738.435M644.164 698.856H683.743M644.164 738.435V778.014M644.164 738.435H683.743M644.164 778.014V817.593M644.164 778.014H683.743M644.164 817.593V857.172M644.164 817.593H683.743M644.164 857.172V896.751M644.164 857.172H683.743M644.164 896.751V936.33M644.164 896.751H683.743M644.164 936.33V975.909M644.164 936.33H683.743M644.164 975.909H683.743M683.743 184.33V223.909M683.743 184.33H723.322M683.743 223.909V263.488M683.743 223.909H723.322M683.743 263.488V303.067M683.743 263.488H723.322M683.743 303.067V342.646M683.743 303.067H723.322M683.743 342.646V382.225M683.743 342.646H723.322M683.743 382.225V421.804M683.743 382.225H723.322M683.743 421.804V461.383M683.743 421.804H723.322M683.743 461.383V500.962M683.743 461.383H723.322M683.743 500.962V540.541M683.743 500.962H723.322M683.743 540.541V580.12M683.743 540.541H723.322M683.743 580.12V619.698M683.743 580.12H723.322M683.743 619.698V659.277M683.743 619.698H723.322M683.743 659.277V698.856M683.743 659.277H723.322M683.743 698.856V738.435M683.743 698.856H723.322M683.743 738.435V778.014M683.743 738.435H723.322M683.743 778.014V817.593M683.743 778.014H723.322M683.743 817.593V857.172M683.743 817.593H723.322M683.743 857.172V896.751M683.743 857.172H723.322M683.743 896.751V936.33M683.743 896.751H723.322M683.743 936.33V975.909M683.743 936.33H723.322M683.743 975.909H723.322M723.322 184.33V223.909M723.322 184.33H762.901M723.322 223.909V263.488M723.322 223.909H762.901M723.322 263.488V303.067M723.322 263.488H762.901M723.322 303.067V342.646M723.322 303.067H762.901M723.322 342.646V382.225M723.322 342.646H762.901M723.322 382.225V421.804M723.322 382.225H762.901M723.322 421.804V461.383M723.322 421.804H762.901M723.322 461.383V500.962M723.322 461.383H762.901M723.322 500.962V540.541M723.322 500.962H762.901M723.322 540.541V580.12M723.322 540.541H762.901M723.322 580.12V619.698M723.322 580.12H762.901M723.322 619.698V659.277M723.322 619.698H762.901M723.322 659.277V698.856M723.322 659.277H762.901M723.322 698.856V738.435M723.322 698.856H762.901M723.322 738.435V778.014M723.322 738.435H762.901M723.322 778.014V817.593M723.322 778.014H762.901M723.322 817.593V857.172M723.322 817.593H762.901M723.322 857.172V896.751M723.322 857.172H762.901M723.322 896.751V936.33M723.322 896.751H762.901M723.322 936.33V975.909M723.322 936.33H762.901M723.322 975.909H762.901M762.901 184.33V223.909M762.901 184.33H802.48M762.901 223.909V263.488M762.901 223.909H802.48M762.901 263.488V303.067M762.901 263.488H802.48M762.901 303.067V342.646M762.901 303.067H802.48M762.901 342.646V382.225M762.901 342.646H802.48M762.901 382.225V421.804M762.901 382.225H802.48M762.901 421.804V461.383M762.901 421.804H802.48M762.901 461.383V500.962M762.901 461.383H802.48M762.901 500.962V540.541M762.901 500.962H802.48M762.901 540.541V580.12M762.901 540.541H802.48M762.901 580.12V619.698M762.901 580.12H802.48M762.901 619.698V659.277M762.901 619.698H802.48M762.901 659.277V698.856M762.901 659.277H802.48M762.901 698.856V738.435M762.901 698.856H802.48M762.901 738.435V778.014M762.901 738.435H802.48M762.901 778.014V817.593M762.901 778.014H802.48M762.901 817.593V857.172M762.901 817.593H802.48M762.901 857.172V896.751M762.901 857.172H802.48M762.901 896.751V936.33M762.901 896.751H802.48M762.901 936.33V975.909M762.901 936.33H802.48M762.901 975.909H802.48M802.48 184.33V223.909M802.48 184.33H842.059M802.48 223.909V263.488M802.48 223.909H842.059M802.48 263.488V303.067M802.48 263.488H842.059M802.48 303.067V342.646M802.48 303.067H842.059M802.48 342.646V382.225M802.48 342.646H842.059M802.48 382.225V421.804M802.48 382.225H842.059M802.48 421.804V461.383M802.48 421.804H842.059M802.48 461.383V500.962M802.48 461.383H842.059M802.48 500.962V540.541M802.48 500.962H842.059M802.48 540.541V580.12M802.48 540.541H842.059M802.48 580.12V619.698M802.48 580.12H842.059M802.48 619.698V659.277M802.48 619.698H842.059M802.48 659.277V698.856M802.48 659.277H842.059M802.48 698.856V738.435M802.48 698.856H842.059M802.48 738.435V778.014M802.48 738.435H842.059M802.48 778.014V817.593M802.48 778.014H842.059M802.48 817.593V857.172M802.48 817.593H842.059M802.48 857.172V896.751M802.48 857.172H842.059M802.48 896.751V936.33M802.48 896.751H842.059M802.48 936.33V975.909M802.48 936.33H842.059M802.48 975.909H842.059M842.059 184.33V223.909M842.059 184.33H881.638M842.059 223.909V263.488M842.059 223.909H881.638M842.059 263.488V303.067M842.059 263.488H881.638M842.059 303.067V342.646M842.059 303.067H881.638M842.059 342.646V382.225M842.059 342.646H881.638M842.059 382.225V421.804M842.059 382.225H881.638M842.059 421.804V461.383M842.059 421.804H881.638M842.059 461.383V500.962M842.059 461.383H881.638M842.059 500.962V540.541M842.059 500.962H881.638M842.059 540.541V580.12M842.059 540.541H881.638M842.059 580.12V619.698M842.059 580.12H881.638M842.059 619.698V659.277M842.059 619.698H881.638M842.059 659.277V698.856M842.059 659.277H881.638M842.059 698.856V738.435M842.059 698.856H881.638M842.059 738.435V778.014M842.059 738.435H881.638M842.059 778.014V817.593M842.059 778.014H881.638M842.059 817.593V857.172M842.059 817.593H881.638M842.059 857.172V896.751M842.059 857.172H881.638M842.059 896.751V936.33M842.059 896.751H881.638M842.059 936.33V975.909M842.059 936.33H881.638M842.059 975.909H881.638M881.638 184.33V223.909M881.638 184.33H921.216M881.638 223.909V263.488M881.638 223.909H921.216M881.638 263.488V303.067M881.638 263.488H921.216M881.638 303.067V342.646M881.638 303.067H921.216M881.638 342.646V382.225M881.638 342.646H921.216M881.638 382.225V421.804M881.638 382.225H921.216M881.638 421.804V461.383M881.638 421.804H921.216M881.638 461.383V500.962M881.638 461.383H921.216M881.638 500.962V540.541M881.638 500.962H921.216M881.638 540.541V580.12M881.638 540.541H921.216M881.638 580.12V619.698M881.638 580.12H921.216M881.638 619.698V659.277M881.638 619.698H921.216M881.638 659.277V698.856M881.638 659.277H921.216M881.638 698.856V738.435M881.638 698.856H921.216M881.638 738.435V778.014M881.638 738.435H921.216M881.638 778.014V817.593M881.638 778.014H921.216M881.638 817.593V857.172M881.638 817.593H921.216M881.638 857.172V896.751M881.638 857.172H921.216M881.638 896.751V936.33M881.638 896.751H921.216M881.638 936.33V975.909M881.638 936.33H921.216M881.638 975.909H921.216M921.216 184.33V223.909M921.216 184.33H960.795M921.216 223.909V263.488M921.216 223.909H960.795M921.216 263.488V303.067M921.216 263.488H960.795M921.216 303.067V342.646M921.216 303.067H960.795M921.216 342.646V382.225M921.216 342.646H960.795M921.216 382.225V421.804M921.216 382.225H960.795M921.216 421.804V461.383M921.216 421.804H960.795M921.216 461.383V500.962M921.216 461.383H960.795M921.216 500.962V540.541M921.216 500.962H960.795M921.216 540.541V580.12M921.216 540.541H960.795M921.216 580.12V619.698M921.216 580.12H960.795M921.216 619.698V659.277M921.216 619.698H960.795M921.216 659.277V698.856M921.216 659.277H960.795M921.216 698.856V738.435M921.216 698.856H960.795M921.216 738.435V778.014M921.216 738.435H960.795M921.216 778.014V817.593M921.216 778.014H960.795M921.216 817.593V857.172M921.216 817.593H960.795M921.216 857.172V896.751M921.216 857.172H960.795M921.216 896.751V936.33M921.216 896.751H960.795M921.216 936.33V975.909M921.216 936.33H960.795M921.216 975.909H960.795M960.795 184.33V223.909M960.795 184.33H1000.37M960.795 223.909V263.488M960.795 223.909H1000.37M960.795 263.488V303.067M960.795 263.488H1000.37M960.795 303.067V342.646M960.795 303.067H1000.37M960.795 342.646V382.225M960.795 342.646H1000.37M960.795 382.225V421.804M960.795 382.225H1000.37M960.795 421.804V461.383M960.795 421.804H1000.37M960.795 461.383V500.962M960.795 461.383H1000.37M960.795 500.962V540.541M960.795 500.962H1000.37M960.795 540.541V580.12M960.795 540.541H1000.37M960.795 580.12V619.698M960.795 580.12H1000.37M960.795 619.698V659.277M960.795 619.698H1000.37M960.795 659.277V698.856M960.795 659.277H1000.37M960.795 698.856V738.435M960.795 698.856H1000.37M960.795 738.435V778.014M960.795 738.435H1000.37M960.795 778.014V817.593M960.795 778.014H1000.37M960.795 817.593V857.172M960.795 817.593H1000.37M960.795 857.172V896.751M960.795 857.172H1000.37M960.795 896.751V936.33M960.795 896.751H1000.37M960.795 936.33V975.909M960.795 936.33H1000.37M960.795 975.909H1000.37M1000.37 184.33V223.909M1000.37 184.33H1039.95M1000.37 223.909V263.488M1000.37 223.909H1039.95M1000.37 263.488V303.067M1000.37 263.488H1039.95M1000.37 303.067V342.646M1000.37 303.067H1039.95M1000.37 342.646V382.225M1000.37 342.646H1039.95M1000.37 382.225V421.804M1000.37 382.225H1039.95M1000.37 421.804V461.383M1000.37 421.804H1039.95M1000.37 461.383V500.962M1000.37 461.383H1039.95M1000.37 500.962V540.541M1000.37 500.962H1039.95M1000.37 540.541V580.12M1000.37 540.541H1039.95M1000.37 580.12V619.698M1000.37 580.12H1039.95M1000.37 619.698V659.277M1000.37 619.698H1039.95M1000.37 659.277V698.856M1000.37 659.277H1039.95M1000.37 698.856V738.435M1000.37 698.856H1039.95M1000.37 738.435V778.014M1000.37 738.435H1039.95M1000.37 778.014V817.593M1000.37 778.014H1039.95M1000.37 817.593V857.172M1000.37 817.593H1039.95M1000.37 857.172V896.751M1000.37 857.172H1039.95M1000.37 896.751V936.33M1000.37 896.751H1039.95M1000.37 936.33V975.909M1000.37 936.33H1039.95M1000.37 975.909H1039.95M1039.95 184.33V223.909M1039.95 184.33H1079.53M1039.95 223.909V263.488M1039.95 223.909H1079.53M1039.95 263.488V303.067M1039.95 263.488H1079.53M1039.95 303.067V342.646M1039.95 303.067H1079.53M1039.95 342.646V382.225M1039.95 342.646H1079.53M1039.95 382.225V421.804M1039.95 382.225H1079.53M1039.95 421.804V461.383M1039.95 421.804H1079.53M1039.95 461.383V500.962M1039.95 461.383H1079.53M1039.95 500.962V540.541M1039.95 500.962H1079.53M1039.95 540.541V580.12M1039.95 540.541H1079.53M1039.95 580.12V619.698M1039.95 580.12H1079.53M1039.95 619.698V659.277M1039.95 619.698H1079.53M1039.95 659.277V698.856M1039.95 659.277H1079.53M1039.95 698.856V738.435M1039.95 698.856H1079.53M1039.95 738.435V778.014M1039.95 738.435H1079.53M1039.95 778.014V817.593M1039.95 778.014H1079.53M1039.95 817.593V857.172M1039.95 817.593H1079.53M1039.95 857.172V896.751M1039.95 857.172H1079.53M1039.95 896.751V936.33M1039.95 896.751H1079.53M1039.95 936.33V975.909M1039.95 936.33H1079.53M1039.95 975.909H1079.53M1079.53 184.33V223.909M1079.53 184.33H1119.11M1079.53 223.909V263.488M1079.53 223.909H1119.11M1079.53 263.488V303.067M1079.53 263.488H1119.11M1079.53 303.067V342.646M1079.53 303.067H1119.11M1079.53 342.646V382.225M1079.53 342.646H1119.11M1079.53 382.225V421.804M1079.53 382.225H1119.11M1079.53 421.804V461.383M1079.53 421.804H1119.11M1079.53 461.383V500.962M1079.53 461.383H1119.11M1079.53 500.962V540.541M1079.53 500.962H1119.11M1079.53 540.541V580.12M1079.53 540.541H1119.11M1079.53 580.12V619.698M1079.53 580.12H1119.11M1079.53 619.698V659.277M1079.53 619.698H1119.11M1079.53 659.277V698.856M1079.53 659.277H1119.11M1079.53 698.856V738.435M1079.53 698.856H1119.11M1079.53 738.435V778.014M1079.53 738.435H1119.11M1079.53 778.014V817.593M1079.53 778.014H1119.11M1079.53 817.593V857.172M1079.53 817.593H1119.11M1079.53 857.172V896.751M1079.53 857.172H1119.11M1079.53 896.751V936.33M1079.53 896.751H1119.11M1079.53 936.33V975.909M1079.53 936.33H1119.11M1079.53 975.909H1119.11M1119.11 184.33V223.909M1119.11 184.33H1158.69M1119.11 223.909V263.488M1119.11 223.909H1158.69M1119.11 263.488V303.067M1119.11 263.488H1158.69M1119.11 303.067V342.646M1119.11 303.067H1158.69M1119.11 342.646V382.225M1119.11 342.646H1158.69M1119.11 382.225V421.804M1119.11 382.225H1158.69M1119.11 421.804V461.383M1119.11 421.804H1158.69M1119.11 461.383V500.962M1119.11 461.383H1158.69M1119.11 500.962V540.541M1119.11 500.962H1158.69M1119.11 540.541V580.12M1119.11 540.541H1158.69M1119.11 580.12V619.698M1119.11 580.12H1158.69M1119.11 619.698V659.277M1119.11 619.698H1158.69M1119.11 659.277V698.856M1119.11 659.277H1158.69M1119.11 698.856V738.435M1119.11 698.856H1158.69M1119.11 738.435V778.014M1119.11 738.435H1158.69M1119.11 778.014V817.593M1119.11 778.014H1158.69M1119.11 817.593V857.172M1119.11 817.593H1158.69M1119.11 857.172V896.751M1119.11 857.172H1158.69M1119.11 896.751V936.33M1119.11 896.751H1158.69M1119.11 936.33V975.909M1119.11 936.33H1158.69M1119.11 975.909H1158.69M1158.69 184.33V223.909M1158.69 184.33H1198.27M1158.69 223.909V263.488M1158.69 223.909H1198.27M1158.69 263.488V303.067M1158.69 263.488H1198.27M1158.69 303.067V342.646M1158.69 303.067H1198.27M1158.69 342.646V382.225M1158.69 342.646H1198.27M1158.69 382.225V421.804M1158.69 382.225H1198.27M1158.69 421.804V461.383M1158.69 421.804H1198.27M1158.69 461.383V500.962M1158.69 461.383H1198.27M1158.69 500.962V540.541M1158.69 500.962H1198.27M1158.69 540.541V580.12M1158.69 540.541H1198.27M1158.69 580.12V619.698M1158.69 580.12H1198.27M1158.69 619.698V659.277M1158.69 619.698H1198.27M1158.69 659.277V698.856M1158.69 659.277H1198.27M1158.69 698.856V738.435M1158.69 698.856H1198.27M1158.69 738.435V778.014M1158.69 738.435H1198.27M1158.69 778.014V817.593M1158.69 778.014H1198.27M1158.69 817.593V857.172M1158.69 817.593H1198.27M1158.69 857.172V896.751M1158.69 857.172H1198.27M1158.69 896.751V936.33M1158.69 896.751H1198.27M1158.69 936.33V975.909M1158.69 936.33H1198.27M1158.69 975.909H1198.27M1198.27 184.33V223.909M1198.27 184.33H1237.85M1198.27 223.909V263.488M1198.27 223.909H1237.85M1198.27 263.488V303.067M1198.27 263.488H1237.85M1198.27 303.067V342.646M1198.27 303.067H1237.85M1198.27 342.646V382.225M1198.27 342.646H1237.85M1198.27 382.225V421.804M1198.27 382.225H1237.85M1198.27 421.804V461.383M1198.27 421.804H1237.85M1198.27 461.383V500.962M1198.27 461.383H1237.85M1198.27 500.962V540.541M1198.27 500.962H1237.85M1198.27 540.541V580.12M1198.27 540.541H1237.85M1198.27 580.12V619.698M1198.27 580.12H1237.85M1198.27 619.698V659.277M1198.27 619.698H1237.85M1198.27 659.277V698.856M1198.27 659.277H1237.85M1198.27 698.856V738.435M1198.27 698.856H1237.85M1198.27 738.435V778.014M1198.27 738.435H1237.85M1198.27 778.014V817.593M1198.27 778.014H1237.85M1198.27 817.593V857.172M1198.27 817.593H1237.85M1198.27 857.172V896.751M1198.27 857.172H1237.85M1198.27 896.751V936.33M1198.27 896.751H1237.85M1198.27 936.33V975.909M1198.27 936.33H1237.85M1198.27 975.909H1237.85M1237.85 184.33V223.909M1237.85 184.33H1277.43M1237.85 223.909V263.488M1237.85 223.909H1277.43M1237.85 263.488V303.067M1237.85 263.488H1277.43M1237.85 303.067V342.646M1237.85 303.067H1277.43M1237.85 342.646V382.225M1237.85 342.646H1277.43M1237.85 382.225V421.804M1237.85 382.225H1277.43M1237.85 421.804V461.383M1237.85 421.804H1277.43M1237.85 461.383V500.962M1237.85 461.383H1277.43M1237.85 500.962V540.541M1237.85 500.962H1277.43M1237.85 540.541V580.12M1237.85 540.541H1277.43M1237.85 580.12V619.698M1237.85 580.12H1277.43M1237.85 619.698V659.277M1237.85 619.698H1277.43M1237.85 659.277V698.856M1237.85 659.277H1277.43M1237.85 698.856V738.435M1237.85 698.856H1277.43M1237.85 738.435V778.014M1237.85 738.435H1277.43M1237.85 778.014V817.593M1237.85 778.014H1277.43M1237.85 817.593V857.172M1237.85 817.593H1277.43M1237.85 857.172V896.751M1237.85 857.172H1277.43M1237.85 896.751V936.33M1237.85 896.751H1277.43M1237.85 936.33V975.909M1237.85 936.33H1277.43M1237.85 975.909H1277.43M1277.43 184.33V223.909M1277.43 184.33H1317.01M1277.43 223.909V263.488M1277.43 223.909H1317.01M1277.43 263.488V303.067M1277.43 263.488H1317.01M1277.43 303.067V342.646M1277.43 303.067H1317.01M1277.43 342.646V382.225M1277.43 342.646H1317.01M1277.43 382.225V421.804M1277.43 382.225H1317.01M1277.43 421.804V461.383M1277.43 421.804H1317.01M1277.43 461.383V500.962M1277.43 461.383H1317.01M1277.43 500.962V540.541M1277.43 500.962H1317.01M1277.43 540.541V580.12M1277.43 540.541H1317.01M1277.43 580.12V619.698M1277.43 580.12H1317.01M1277.43 619.698V659.277M1277.43 619.698H1317.01M1277.43 659.277V698.856M1277.43 659.277H1317.01M1277.43 698.856V738.435M1277.43 698.856H1317.01M1277.43 738.435V778.014M1277.43 738.435H1317.01M1277.43 778.014V817.593M1277.43 778.014H1317.01M1277.43 817.593V857.172M1277.43 817.593H1317.01M1277.43 857.172V896.751M1277.43 857.172H1317.01M1277.43 896.751V936.33M1277.43 896.751H1317.01M1277.43 936.33V975.909M1277.43 936.33H1317.01M1277.43 975.909H1317.01M1317.01 184.33V223.909M1317.01 184.33H1356.58M1317.01 223.909V263.488M1317.01 223.909H1356.58M1317.01 263.488V303.067M1317.01 263.488H1356.58M1317.01 303.067V342.646M1317.01 303.067H1356.58M1317.01 342.646V382.225M1317.01 342.646H1356.58M1317.01 382.225V421.804M1317.01 382.225H1356.58M1317.01 421.804V461.383M1317.01 421.804H1356.58M1317.01 461.383V500.962M1317.01 461.383H1356.58M1317.01 500.962V540.541M1317.01 500.962H1356.58M1317.01 540.541V580.12M1317.01 540.541H1356.58M1317.01 580.12V619.698M1317.01 580.12H1356.58M1317.01 619.698V659.277M1317.01 619.698H1356.58M1317.01 659.277V698.856M1317.01 659.277H1356.58M1317.01 698.856V738.435M1317.01 698.856H1356.58M1317.01 738.435V778.014M1317.01 738.435H1356.58M1317.01 778.014V817.593M1317.01 778.014H1356.58M1317.01 817.593V857.172M1317.01 817.593H1356.58M1317.01 857.172V896.751M1317.01 857.172H1356.58M1317.01 896.751V936.33M1317.01 896.751H1356.58M1317.01 936.33V975.909M1317.01 936.33H1356.58M1317.01 975.909H1356.58M1356.58 184.33V223.909M1356.58 184.33H1396.16M1356.58 223.909V263.488M1356.58 223.909H1396.16M1356.58 263.488V303.067M1356.58 263.488H1396.16M1356.58 303.067V342.646M1356.58 303.067H1396.16M1356.58 342.646V382.225M1356.58 342.646H1396.16M1356.58 382.225V421.804M1356.58 382.225H1396.16M1356.58 421.804V461.383M1356.58 421.804H1396.16M1356.58 461.383V500.962M1356.58 461.383H1396.16M1356.58 500.962V540.541M1356.58 500.962H1396.16M1356.58 540.541V580.12M1356.58 540.541H1396.16M1356.58 580.12V619.698M1356.58 580.12H1396.16M1356.58 619.698V659.277M1356.58 619.698H1396.16M1356.58 659.277V698.856M1356.58 659.277H1396.16M1356.58 698.856V738.435M1356.58 698.856H1396.16M1356.58 738.435V778.014M1356.58 738.435H1396.16M1356.58 778.014V817.593M1356.58 778.014H1396.16M1356.58 817.593V857.172M1356.58 817.593H1396.16M1356.58 857.172V896.751M1356.58 857.172H1396.16M1356.58 896.751V936.33M1356.58 896.751H1396.16M1356.58 936.33V975.909M1356.58 936.33H1396.16M1356.58 975.909H1396.16M1396.16 184.33V223.909M1396.16 184.33H1435.74M1396.16 223.909V263.488M1396.16 223.909H1435.74M1396.16 263.488V303.067M1396.16 263.488H1435.74M1396.16 303.067V342.646M1396.16 303.067H1435.74M1396.16 342.646V382.225M1396.16 342.646H1435.74M1396.16 382.225V421.804M1396.16 382.225H1435.74M1396.16 421.804V461.383M1396.16 421.804H1435.74M1396.16 461.383V500.962M1396.16 461.383H1435.74M1396.16 500.962V540.541M1396.16 500.962H1435.74M1396.16 540.541V580.12M1396.16 540.541H1435.74M1396.16 580.12V619.698M1396.16 580.12H1435.74M1396.16 619.698V659.277M1396.16 619.698H1435.74M1396.16 659.277V698.856M1396.16 659.277H1435.74M1396.16 698.856V738.435M1396.16 698.856H1435.74M1396.16 738.435V778.014M1396.16 738.435H1435.74M1396.16 778.014V817.593M1396.16 778.014H1435.74M1396.16 817.593V857.172M1396.16 817.593H1435.74M1396.16 857.172V896.751M1396.16 857.172H1435.74M1396.16 896.751V936.33M1396.16 896.751H1435.74M1396.16 936.33V975.909M1396.16 936.33H1435.74M1396.16 975.909H1435.74M1435.74 184.33V223.909M1435.74 184.33H1475.32M1435.74 223.909V263.488M1435.74 223.909H1475.32M1435.74 263.488V303.067M1435.74 263.488H1475.32M1435.74 303.067V342.646M1435.74 303.067H1475.32M1435.74 342.646V382.225M1435.74 342.646H1475.32M1435.74 382.225V421.804M1435.74 382.225H1475.32M1435.74 421.804V461.383M1435.74 421.804H1475.32M1435.74 461.383V500.962M1435.74 461.383H1475.32M1435.74 500.962V540.541M1435.74 500.962H1475.32M1435.74 540.541V580.12M1435.74 540.541H1475.32M1435.74 580.12V619.698M1435.74 580.12H1475.32M1435.74 619.698V659.277M1435.74 619.698H1475.32M1435.74 659.277V698.856M1435.74 659.277H1475.32M1435.74 698.856V738.435M1435.74 698.856H1475.32M1435.74 738.435V778.014M1435.74 738.435H1475.32M1435.74 778.014V817.593M1435.74 778.014H1475.32M1435.74 817.593V857.172M1435.74 817.593H1475.32M1435.74 857.172V896.751M1435.74 857.172H1475.32M1435.74 896.751V936.33M1435.74 896.751H1475.32M1435.74 936.33V975.909M1435.74 936.33H1475.32M1435.74 975.909H1475.32M1475.32 184.33V223.909M1475.32 184.33H1514.9M1475.32 223.909V263.488M1475.32 223.909H1514.9M1475.32 263.488V303.067M1475.32 263.488H1514.9M1475.32 303.067V342.646M1475.32 303.067H1514.9M1475.32 342.646V382.225M1475.32 342.646H1514.9M1475.32 382.225V421.804M1475.32 382.225H1514.9M1475.32 421.804V461.383M1475.32 421.804H1514.9M1475.32 461.383V500.962M1475.32 461.383H1514.9M1475.32 500.962V540.541M1475.32 500.962H1514.9M1475.32 540.541V580.12M1475.32 540.541H1514.9M1475.32 580.12V619.698M1475.32 580.12H1514.9M1475.32 619.698V659.277M1475.32 619.698H1514.9M1475.32 659.277V698.856M1475.32 659.277H1514.9M1475.32 698.856V738.435M1475.32 698.856H1514.9M1475.32 738.435V778.014M1475.32 738.435H1514.9M1475.32 778.014V817.593M1475.32 778.014H1514.9M1475.32 817.593V857.172M1475.32 817.593H1514.9M1475.32 857.172V896.751M1475.32 857.172H1514.9M1475.32 896.751V936.33M1475.32 896.751H1514.9M1475.32 936.33V975.909M1475.32 936.33H1514.9M1475.32 975.909H1514.9M1514.9 184.33V223.909M1514.9 184.33H1554.48M1514.9 223.909V263.488M1514.9 223.909H1554.48M1514.9 263.488V303.067M1514.9 263.488H1554.48M1514.9 303.067V342.646M1514.9 303.067H1554.48M1514.9 342.646V382.225M1514.9 342.646H1554.48M1514.9 382.225V421.804M1514.9 382.225H1554.48M1514.9 421.804V461.383M1514.9 421.804H1554.48M1514.9 461.383V500.962M1514.9 461.383H1554.48M1514.9 500.962V540.541M1514.9 500.962H1554.48M1514.9 540.541V580.12M1514.9 540.541H1554.48M1514.9 580.12V619.698M1514.9 580.12H1554.48M1514.9 619.698V659.277M1514.9 619.698H1554.48M1514.9 659.277V698.856M1514.9 659.277H1554.48M1514.9 698.856V738.435M1514.9 698.856H1554.48M1514.9 738.435V778.014M1514.9 738.435H1554.48M1514.9 778.014V817.593M1514.9 778.014H1554.48M1514.9 817.593V857.172M1514.9 817.593H1554.48M1514.9 857.172V896.751M1514.9 857.172H1554.48M1514.9 896.751V936.33M1514.9 896.751H1554.48M1514.9 936.33V975.909M1514.9 936.33H1554.48M1514.9 975.909H1554.48M1554.48 184.33V223.909M1554.48 184.33H1594.06M1554.48 223.909V263.488M1554.48 223.909H1594.06M1554.48 263.488V303.067M1554.48 263.488H1594.06M1554.48 303.067V342.646M1554.48 303.067H1594.06M1554.48 342.646V382.225M1554.48 342.646H1594.06M1554.48 382.225V421.804M1554.48 382.225H1594.06M1554.48 421.804V461.383M1554.48 421.804H1594.06M1554.48 461.383V500.962M1554.48 461.383H1594.06M1554.48 500.962V540.541M1554.48 500.962H1594.06M1554.48 540.541V580.12M1554.48 540.541H1594.06M1554.48 580.12V619.698M1554.48 580.12H1594.06M1554.48 619.698V659.277M1554.48 619.698H1594.06M1554.48 659.277V698.856M1554.48 659.277H1594.06M1554.48 698.856V738.435M1554.48 698.856H1594.06M1554.48 738.435V778.014M1554.48 738.435H1594.06M1554.48 778.014V817.593M1554.48 778.014H1594.06M1554.48 817.593V857.172M1554.48 817.593H1594.06M1554.48 857.172V896.751M1554.48 857.172H1594.06M1554.48 896.751V936.33M1554.48 896.751H1594.06M1554.48 936.33V975.909M1554.48 936.33H1594.06M1554.48 975.909H1594.06M1594.06 184.33V223.909M1594.06 184.33H1633.64M1594.06 223.909V263.488M1594.06 223.909H1633.64M1594.06 263.488V303.067M1594.06 263.488H1633.64M1594.06 303.067V342.646M1594.06 303.067H1633.64M1594.06 342.646V382.225M1594.06 342.646H1633.64M1594.06 382.225V421.804M1594.06 382.225H1633.64M1594.06 421.804V461.383M1594.06 421.804H1633.64M1594.06 461.383V500.962M1594.06 461.383H1633.64M1594.06 500.962V540.541M1594.06 500.962H1633.64M1594.06 540.541V580.12M1594.06 540.541H1633.64M1594.06 580.12V619.698M1594.06 580.12H1633.64M1594.06 619.698V659.277M1594.06 619.698H1633.64M1594.06 659.277V698.856M1594.06 659.277H1633.64M1594.06 698.856V738.435M1594.06 698.856H1633.64M1594.06 738.435V778.014M1594.06 738.435H1633.64M1594.06 778.014V817.593M1594.06 778.014H1633.64M1594.06 817.593V857.172M1594.06 817.593H1633.64M1594.06 857.172V896.751M1594.06 857.172H1633.64M1594.06 896.751V936.33M1594.06 896.751H1633.64M1594.06 936.33V975.909M1594.06 936.33H1633.64M1594.06 975.909H1633.64M1633.64 184.33V223.909M1633.64 184.33H1673.22M1633.64 223.909V263.488M1633.64 223.909H1673.22M1633.64 263.488V303.067M1633.64 263.488H1673.22M1633.64 303.067V342.646M1633.64 303.067H1673.22M1633.64 342.646V382.225M1633.64 342.646H1673.22M1633.64 382.225V421.804M1633.64 382.225H1673.22M1633.64 421.804V461.383M1633.64 421.804H1673.22M1633.64 461.383V500.962M1633.64 461.383H1673.22M1633.64 500.962V540.541M1633.64 500.962H1673.22M1633.64 540.541V580.12M1633.64 540.541H1673.22M1633.64 580.12V619.698M1633.64 580.12H1673.22M1633.64 619.698V659.277M1633.64 619.698H1673.22M1633.64 659.277V698.856M1633.64 659.277H1673.22M1633.64 698.856V738.435M1633.64 698.856H1673.22M1633.64 738.435V778.014M1633.64 738.435H1673.22M1633.64 778.014V817.593M1633.64 778.014H1673.22M1633.64 817.593V857.172M1633.64 817.593H1673.22M1633.64 857.172V896.751M1633.64 857.172H1673.22M1633.64 896.751V936.33M1633.64 896.751H1673.22M1633.64 936.33V975.909M1633.64 936.33H1673.22M1633.64 975.909H1673.22M1673.22 184.33V223.909M1673.22 184.33H1712.8M1673.22 223.909V263.488M1673.22 223.909H1712.8M1673.22 263.488V303.067M1673.22 263.488H1712.8M1673.22 303.067V342.646M1673.22 303.067H1712.8M1673.22 342.646V382.225M1673.22 342.646H1712.8M1673.22 382.225V421.804M1673.22 382.225H1712.8M1673.22 421.804V461.383M1673.22 421.804H1712.8M1673.22 461.383V500.962M1673.22 461.383H1712.8M1673.22 500.962V540.541M1673.22 500.962H1712.8M1673.22 540.541V580.12M1673.22 540.541H1712.8M1673.22 580.12V619.698M1673.22 580.12H1712.8M1673.22 619.698V659.277M1673.22 619.698H1712.8M1673.22 659.277V698.856M1673.22 659.277H1712.8M1673.22 698.856V738.435M1673.22 698.856H1712.8M1673.22 738.435V778.014M1673.22 738.435H1712.8M1673.22 778.014V817.593M1673.22 778.014H1712.8M1673.22 817.593V857.172M1673.22 817.593H1712.8M1673.22 857.172V896.751M1673.22 857.172H1712.8M1673.22 896.751V936.33M1673.22 896.751H1712.8M1673.22 936.33V975.909M1673.22 936.33H1712.8M1673.22 975.909H1712.8M1712.8 184.33V223.909M1712.8 184.33H1752.37M1712.8 223.909V263.488M1712.8 223.909H1752.37M1712.8 263.488V303.067M1712.8 263.488H1752.37M1712.8 303.067V342.646M1712.8 303.067H1752.37M1712.8 342.646V382.225M1712.8 342.646H1752.37M1712.8 382.225V421.804M1712.8 382.225H1752.37M1712.8 421.804V461.383M1712.8 421.804H1752.37M1712.8 461.383V500.962M1712.8 461.383H1752.37M1712.8 500.962V540.541M1712.8 500.962H1752.37M1712.8 540.541V580.12M1712.8 540.541H1752.37M1712.8 580.12V619.698M1712.8 580.12H1752.37M1712.8 619.698V659.277M1712.8 619.698H1752.37M1712.8 659.277V698.856M1712.8 659.277H1752.37M1712.8 698.856V738.435M1712.8 698.856H1752.37M1712.8 738.435V778.014M1712.8 738.435H1752.37M1712.8 778.014V817.593M1712.8 778.014H1752.37M1712.8 817.593V857.172M1712.8 817.593H1752.37M1712.8 857.172V896.751M1712.8 857.172H1752.37M1712.8 896.751V936.33M1712.8 896.751H1752.37M1712.8 936.33V975.909M1712.8 936.33H1752.37M1712.8 975.909H1752.37M1752.37 184.33V223.909M1752.37 184.33H1791.95M1752.37 223.909V263.488M1752.37 223.909H1791.95M1752.37 263.488V303.067M1752.37 263.488H1791.95M1752.37 303.067V342.646M1752.37 303.067H1791.95M1752.37 342.646V382.225M1752.37 342.646H1791.95M1752.37 382.225V421.804M1752.37 382.225H1791.95M1752.37 421.804V461.383M1752.37 421.804H1791.95M1752.37 461.383V500.962M1752.37 461.383H1791.95M1752.37 500.962V540.541M1752.37 500.962H1791.95M1752.37 540.541V580.12M1752.37 540.541H1791.95M1752.37 580.12V619.698M1752.37 580.12H1791.95M1752.37 619.698V659.277M1752.37 619.698H1791.95M1752.37 659.277V698.856M1752.37 659.277H1791.95M1752.37 698.856V738.435M1752.37 698.856H1791.95M1752.37 738.435V778.014M1752.37 738.435H1791.95M1752.37 778.014V817.593M1752.37 778.014H1791.95M1752.37 817.593V857.172M1752.37 817.593H1791.95M1752.37 857.172V896.751M1752.37 857.172H1791.95M1752.37 896.751V936.33M1752.37 896.751H1791.95M1752.37 936.33V975.909M1752.37 936.33H1791.95M1752.37 975.909H1791.95M1791.95 184.33V223.909M1791.95 184.33H1831.53V223.909M1791.95 223.909V263.488M1791.95 223.909H1831.53M1791.95 263.488V303.067M1791.95 263.488H1831.53M1791.95 303.067V342.646M1791.95 303.067H1831.53M1791.95 342.646V382.225M1791.95 342.646H1831.53M1791.95 382.225V421.804M1791.95 382.225H1831.53M1791.95 421.804V461.383M1791.95 421.804H1831.53M1791.95 461.383V500.962M1791.95 461.383H1831.53M1791.95 500.962V540.541M1791.95 500.962H1831.53M1791.95 540.541V580.12M1791.95 540.541H1831.53M1791.95 580.12V619.698M1791.95 580.12H1831.53M1791.95 619.698V659.277M1791.95 619.698H1831.53M1791.95 659.277V698.856M1791.95 659.277H1831.53M1791.95 698.856V738.435M1791.95 698.856H1831.53M1791.95 738.435V778.014M1791.95 738.435H1831.53M1791.95 778.014V817.593M1791.95 778.014H1831.53M1791.95 817.593V857.172M1791.95 817.593H1831.53M1791.95 857.172V896.751M1791.95 857.172H1831.53M1791.95 896.751V936.33M1791.95 896.751H1831.53M1791.95 936.33V975.909M1791.95 936.33H1831.53M1791.95 975.909H1831.53V936.33M1831.53 223.909V263.488M1831.53 263.488V303.067M1831.53 303.067V342.646M1831.53 342.646V382.225M1831.53 382.225V421.804M1831.53 421.804V461.383M1831.53 461.383V500.962M1831.53 500.962V540.541M1831.53 540.541V580.12M1831.53 580.12V619.698M1831.53 619.698V659.277M1831.53 659.277V698.856M1831.53 698.856V738.435M1831.53 738.435V778.014M1831.53 778.014V817.593M1831.53 817.593V857.172M1831.53 857.172V896.751M1831.53 896.751V936.33" stroke="url(#paint0_radial_164_1945)" stroke-opacity="0.9" stroke-width="0.494737"/>
</g>
<g style="mix-blend-mode:soft-light" opacity="0.8">
<path d="M248.373 330.772V342.645M248.373 342.645V354.519M248.373 342.645H236.499M248.373 342.645H260.247M248.373 647.403V659.277M248.373 659.277V671.151M248.373 659.277H236.499M248.373 659.277H260.247M248.373 964.035V975.908M248.373 975.908V987.782M248.373 975.908H236.499M248.373 975.908H260.247M565.005 330.772V342.645M565.005 342.645V354.519M565.005 342.645H553.131M565.005 342.645H576.878M565.005 647.403V659.277M565.005 659.277V671.151M565.005 659.277H553.131M565.005 659.277H576.878M565.005 964.035V975.908M565.005 975.908V987.782M565.005 975.908H553.131M565.005 975.908H576.878M881.636 330.772V342.645M881.636 342.645V354.519M881.636 342.645H869.763M881.636 342.645H893.51M881.636 647.403V659.277M881.636 659.277V671.151M881.636 659.277H869.763M881.636 659.277H893.51M881.636 964.035V975.908M881.636 975.908V987.782M881.636 975.908H869.763M881.636 975.908H893.51M1198.27 330.772V342.645M1198.27 342.645V354.519M1198.27 342.645H1186.39M1198.27 342.645H1210.14M1198.27 647.403V659.277M1198.27 659.277V671.151M1198.27 659.277H1186.39M1198.27 659.277H1210.14M1198.27 964.035V975.908M1198.27 975.908V987.782M1198.27 975.908H1186.39M1198.27 975.908H1210.14M1514.9 330.772V342.645M1514.9 342.645V354.519M1514.9 342.645H1503.03M1514.9 342.645H1526.77M1514.9 647.403V659.277M1514.9 659.277V671.151M1514.9 659.277H1503.03M1514.9 659.277H1526.77M1514.9 964.035V975.908M1514.9 975.908V987.782M1514.9 975.908H1503.03M1514.9 975.908H1526.77M1831.53 330.772V342.645M1831.53 342.645V354.519M1831.53 342.645H1819.66M1831.53 342.645H1843.4M1831.53 647.403V659.277M1831.53 659.277V671.151M1831.53 659.277H1819.66M1831.53 659.277H1843.4M1831.53 964.035V975.908M1831.53 975.908V987.782M1831.53 975.908H1819.66M1831.53 975.908H1843.4M248.373 172.456V184.33M248.373 184.33V196.203M248.373 184.33H236.499M248.373 184.33H260.247M248.373 489.088V500.961M248.373 500.961V512.835M248.373 500.961H236.499M248.373 500.961H260.247M248.373 805.719V817.593M248.373 817.593V829.466M248.373 817.593H236.499M248.373 817.593H260.247M565.005 172.456V184.33M565.005 184.33V196.203M565.005 184.33H553.131M565.005 184.33H576.878M565.005 489.088V500.961M565.005 500.961V512.835M565.005 500.961H553.131M565.005 500.961H576.878M565.005 805.719V817.593M565.005 817.593V829.466M565.005 817.593H553.131M565.005 817.593H576.878M881.636 172.456V184.33M881.636 184.33V196.203M881.636 184.33H869.763M881.636 184.33H893.51M881.636 489.088V500.961M881.636 500.961V512.835M881.636 500.961H869.763M881.636 500.961H893.51M881.636 805.719V817.593M881.636 817.593V829.466M881.636 817.593H869.763M881.636 817.593H893.51M1198.27 172.456V184.33M1198.27 184.33V196.203M1198.27 184.33H1186.39M1198.27 184.33H1210.14M1198.27 489.088V500.961M1198.27 500.961V512.835M1198.27 500.961H1186.39M1198.27 500.961H1210.14M1198.27 805.719V817.593M1198.27 817.593V829.466M1198.27 817.593H1186.39M1198.27 817.593H1210.14M1514.9 172.456V184.33M1514.9 184.33V196.203M1514.9 184.33H1503.03M1514.9 184.33H1526.77M1514.9 489.088V500.961M1514.9 500.961V512.835M1514.9 500.961H1503.03M1514.9 500.961H1526.77M1514.9 805.719V817.593M1514.9 817.593V829.466M1514.9 817.593H1503.03M1514.9 817.593H1526.77M1831.53 172.456V184.33M1831.53 184.33V196.203M1831.53 184.33H1819.66M1831.53 184.33H1843.4M1831.53 489.088V500.961M1831.53 500.961V512.835M1831.53 500.961H1819.66M1831.53 500.961H1843.4M1831.53 805.719V817.593M1831.53 817.593V829.466M1831.53 817.593H1819.66M1831.53 817.593H1843.4M90.0573 330.772V342.645M90.0573 342.645V354.519M90.0573 342.645H78.1836M90.0573 342.645H101.931M90.0573 647.403V659.277M90.0573 659.277V671.151M90.0573 659.277H78.1836M90.0573 659.277H101.931M90.0573 964.035V975.908M90.0573 975.908V987.782M90.0573 975.908H78.1836M90.0573 975.908H101.931M406.689 330.772V342.645M406.689 342.645V354.519M406.689 342.645H394.815M406.689 342.645H418.563M406.689 647.403V659.277M406.689 659.277V671.151M406.689 659.277H394.815M406.689 659.277H418.563M406.689 964.035V975.908M406.689 975.908V987.782M406.689 975.908H394.815M406.689 975.908H418.563M723.32 330.772V342.645M723.32 342.645V354.519M723.32 342.645H711.447M723.32 342.645H735.194M723.32 647.403V659.277M723.32 659.277V671.151M723.32 659.277H711.447M723.32 659.277H735.194M723.32 964.035V975.908M723.32 975.908V987.782M723.32 975.908H711.447M723.32 975.908H735.194M1039.95 330.772V342.645M1039.95 342.645V354.519M1039.95 342.645H1028.08M1039.95 342.645H1051.83M1039.95 647.403V659.277M1039.95 659.277V671.151M1039.95 659.277H1028.08M1039.95 659.277H1051.83M1039.95 964.035V975.908M1039.95 975.908V987.782M1039.95 975.908H1028.08M1039.95 975.908H1051.83M1356.58 330.772V342.645M1356.58 342.645V354.519M1356.58 342.645H1344.71M1356.58 342.645H1368.46M1356.58 647.403V659.277M1356.58 659.277V671.151M1356.58 659.277H1344.71M1356.58 659.277H1368.46M1356.58 964.035V975.908M1356.58 975.908V987.782M1356.58 975.908H1344.71M1356.58 975.908H1368.46M1673.22 330.772V342.645M1673.22 342.645V354.519M1673.22 342.645H1661.34M1673.22 342.645H1685.09M1673.22 647.403V659.277M1673.22 659.277V671.151M1673.22 659.277H1661.34M1673.22 659.277H1685.09M1673.22 964.035V975.908M1673.22 975.908V987.782M1673.22 975.908H1661.34M1673.22 975.908H1685.09M90.0573 172.456V184.33M90.0573 184.33V196.203M90.0573 184.33H78.1836M90.0573 184.33H101.931M90.0573 489.088V500.961M90.0573 500.961V512.835M90.0573 500.961H78.1836M90.0573 500.961H101.931M90.0573 805.719V817.593M90.0573 817.593V829.466M90.0573 817.593H78.1836M90.0573 817.593H101.931M406.689 172.456V184.33M406.689 184.33V196.203M406.689 184.33H394.815M406.689 184.33H418.563M406.689 489.088V500.961M406.689 500.961V512.835M406.689 500.961H394.815M406.689 500.961H418.563M406.689 805.719V817.593M406.689 817.593V829.466M406.689 817.593H394.815M406.689 817.593H418.563M723.32 172.456V184.33M723.32 184.33V196.203M723.32 184.33H711.447M723.32 184.33H735.194M723.32 489.088V500.961M723.32 500.961V512.835M723.32 500.961H711.447M723.32 500.961H735.194M723.32 805.719V817.593M723.32 817.593V829.466M723.32 817.593H711.447M723.32 817.593H735.194M1039.95 172.456V184.33M1039.95 184.33V196.203M1039.95 184.33H1028.08M1039.95 184.33H1051.83M1039.95 489.088V500.961M1039.95 500.961V512.835M1039.95 500.961H1028.08M1039.95 500.961H1051.83M1039.95 805.719V817.593M1039.95 817.593V829.466M1039.95 817.593H1028.08M1039.95 817.593H1051.83M1356.58 172.456V184.33M1356.58 184.33V196.203M1356.58 184.33H1344.71M1356.58 184.33H1368.46M1356.58 489.088V500.961M1356.58 500.961V512.835M1356.58 500.961H1344.71M1356.58 500.961H1368.46M1356.58 805.719V817.593M1356.58 817.593V829.466M1356.58 817.593H1344.71M1356.58 817.593H1368.46M1673.22 172.456V184.33M1673.22 184.33V196.203M1673.22 184.33H1661.34M1673.22 184.33H1685.09M1673.22 489.088V500.961M1673.22 500.961V512.835M1673.22 500.961H1661.34M1673.22 500.961H1685.09M1673.22 805.719V817.593M1673.22 817.593V829.466M1673.22 817.593H1661.34M1673.22 817.593H1685.09" stroke="url(#paint1_radial_164_1945)" stroke-opacity="0.9" stroke-width="0.989474"/>
</g>
</g>
<defs>
<radialGradient id="paint0_radial_164_1945" cx="0" cy="0" r="1" gradientUnits="userSpaceOnUse" gradientTransform="translate(960.795 580.12) rotate(90) scale(395.789 870.737)">
<stop stop-color="white"/>
<stop offset="1" stop-color="white" stop-opacity="0"/>
</radialGradient>
<radialGradient id="paint1_radial_164_1945" cx="0" cy="0" r="1" gradientUnits="userSpaceOnUse" gradientTransform="translate(960.794 580.119) rotate(90) scale(407.663 882.611)">
<stop stop-color="white"/>
<stop offset="1" stop-color="white" stop-opacity="0"/>
</radialGradient>
<clipPath id="clip0_164_1945">
<rect width="1920" height="1157.77" fill="white" transform="translate(0.796875 0.925781)"/>
</clipPath>
</defs>
</svg>
